#!OML:ASF I:\Random Stuff\random\construction\7_22_03\Session 2\subj1.ASF
:FULLY-SPECIFIED
:DEGREES
716
root 4.11418 17.7498 -9.51421 18.5654 -24.5776 -2.14627
lowerback 11.6106 1.01226 6.51638
upperback 6.23904 1.8763 -1.54602
thorax 0.324321 1.09419 -5.49655
lowerneck -20.4711 2.56578 -1.08566
upperneck 38.8831 7.9227 -8.82003
head 18.6145 1.62935 -2.3059
rclavicle -6.8531e-014 -4.09993e-015
rhumerus 27.7509 41.5724 -23.5724
rradius 79.9534
rwrist 10.8898
rhand -5.71768 35.1185
rfingers 7.12502
rthumb 20.1037 6.13869
lclavicle -6.8531e-014 -4.09993e-015
lhumerus 7.70475 -70.4247 82.8035
lradius 79.0895
lwrist -11.6239
lhand -25.6731 39.3494
lfingers 7.12502
lthumb 0.861519 429.327
rfemur -27.8778 1.27684 18.548
rtibia 15.9201
rfoot -3.70385 -8.62933
rtoes -8.92178
lfemur -24.2729 -16.8968 -3.84798
ltibia 18.0064
lfoot -12.2879 21.9378
ltoes -31.4232
717
root 4.10911 17.7482 -9.51894 18.5723 -24.4595 -2.13237
lowerback 11.6775 1.07389 6.62333
upperback 6.26569 1.97046 -1.59121
thorax 0.337158 1.14584 -5.61657
lowerneck -20.5646 2.50936 -0.988624
upperneck 38.9062 7.7969 -8.79034
head 18.6446 1.5975 -2.33653
rclavicle -6.45802e-014 -1.23246e-014
rhumerus 28.0134 41.5574 -23.2261
rradius 79.6465
rwrist 11.3517
rhand -6.0607 35.3402
rfingers 7.12502
rthumb 19.774 6.32606
lclavicle -6.45802e-014 -1.23246e-014
lhumerus 8.32289 -70.7112 82.2681
lradius 79.0528
lwrist -11.5059
lhand -25.6364 39.3707
lfingers 7.12502
lthumb 0.896954 429.349
rfemur -27.9371 1.13918 18.603
rtibia 16.024
rfoot -3.754 -8.6106
rtoes -8.97335
lfemur -24.3568 -17.1665 -3.73977
ltibia 18.0166
lfoot -12.2225 22.1434
ltoes -31.8435
718
root 4.10217 17.7468 -9.5232 18.5937 -24.2683 -2.12959
lowerback 11.7395 1.04529 6.63671
upperback 6.26378 1.93922 -1.52781
thorax 0.294883 1.12783 -5.55604
lowerneck -20.589 2.55075 -1.00881
upperneck 38.8858 7.9008 -8.86013
head 18.6536 1.62626 -2.34271
rclavicle 1.26725e-014 1.38155e-014
rhumerus 28.5669 41.6866 -22.5066
rradius 79.57
rwrist 11.5498
rhand -6.18506 35.5363
rfingers 7.12502
rthumb 19.6544 6.50985
lclavicle 1.26725e-014 1.38155e-014
lhumerus 8.46482 -70.6935 82.253
lradius 79.0301
lwrist -11.4657
lhand -25.6777 39.3067
lfingers 7.12502
lthumb 0.857045 429.285
rfemur -27.9948 0.924553 18.7011
rtibia 16.1328
rfoot -3.80917 -8.60393
rtoes -9.04347
lfemur -24.4798 -17.4642 -3.58721
ltibia 18.0374
lfoot -12.1974 22.3257
ltoes -32.0446
719
root 4.09284 17.7469 -9.52672 18.6124 -24.0896 -2.1651
lowerback 11.8084 0.989808 6.55518
upperback 6.26398 1.86462 -1.37381
thorax 0.236613 1.0835 -5.34135
lowerneck -20.5968 2.62826 -1.12974
upperneck 38.8552 8.12691 -8.99693
head 18.6647 1.67843 -2.33646
rclavicle -2.33572e-015 2.79292e-014
rhumerus 29.1959 41.8794 -21.5855
rradius 79.6325
rwrist 11.6508
rhand -6.10613 35.5889
rfingers 7.12502
rthumb 19.7303 6.57021
lclavicle -2.33572e-015 2.79292e-014
lhumerus 8.29355 -70.4644 82.5905
lradius 79.0517
lwrist -11.5233
lhand -25.6526 39.0975
lfingers 7.12502
lthumb 0.881284 429.075
rfemur -28.0189 0.708628 18.8448
rtibia 16.2212
rfoot -3.88678 -8.55088
rtoes -8.87064
lfemur -24.5631 -17.6859 -3.41535
ltibia 18.0551
lfoot -12.209 22.3795
ltoes -31.928
720
root 4.08465 17.7467 -9.52948 18.6213 -23.9416 -2.17259
lowerback 11.8542 0.94535 6.52658
upperback 6.28208 1.80655 -1.3062
thorax 0.218687 1.05236 -5.2487
lowerneck -20.6226 2.68957 -1.15324
upperneck 38.81 8.29195 -9.14394
head 18.6724 1.72022 -2.36488
rclavicle -2.14687e-014 -1.56046e-014
rhumerus 29.6931 41.9981 -20.8384
rradius 79.7253
rwrist 11.8395
rhand -6.03378 35.4631
rfingers 7.12502
rthumb 19.7999 6.45162
lclavicle -2.14687e-014 -1.56046e-014
lhumerus 8.20238 -70.3206 82.7264
lradius 79.1321
lwrist -11.6297
lhand -25.5919 39.0329
lfingers 7.12502
lthumb 0.939941 429.011
rfemur -28.0452 0.512896 18.9442
rtibia 16.2935
rfoot -3.9673 -8.48024
rtoes -8.71162
lfemur -24.6206 -17.6611 -3.35712
ltibia 18.0556
lfoot -12.1014 22.2401
ltoes -32.1328
721
root 4.0794 17.7468 -9.53198 18.6355 -23.7757 -2.15819
lowerback 11.8846 0.930342 6.55548
upperback 6.30471 1.79114 -1.29811
thorax 0.225021 1.04609 -5.25548
lowerneck -20.6555 2.6896 -1.07428
upperneck 38.765 8.31123 -9.26708
head 18.6719 1.72426 -2.43146
rclavicle 7.70291e-015 -2.88238e-015
rhumerus 29.9816 42.0169 -20.3241
rradius 79.8162
rwrist 11.9602
rhand -6.02267 35.3079
rfingers 7.12502
rthumb 19.8106 6.29751
lclavicle 7.70291e-015 -2.88238e-015
lhumerus 8.224 -70.3758 82.7249
lradius 79.214
lwrist -11.6771
lhand -25.6519 39.0395
lfingers 7.12502
lthumb 0.881967 429.017
rfemur -28.0904 0.339939 19.0037
rtibia 16.3723
rfoot -4.02789 -8.46227
rtoes -8.66179
lfemur -24.6925 -17.5848 -3.33674
ltibia 18.0359
lfoot -12.0551 22.0799
ltoes -32.2592
722
root 4.07401 17.7489 -9.5349 18.6766 -23.5812 -2.16299
lowerback 11.8717 0.911645 6.6246
upperback 6.32145 1.7724 -1.30199
thorax 0.250432 1.04006 -5.29613
lowerneck -20.6429 2.68672 -1.01105
upperneck 38.6876 8.28156 -9.28776
head 18.6241 1.72358 -2.45427
rclavicle 3.13086e-014 -1.88845e-015
rhumerus 30.1775 42.039 -19.9894
rradius 79.7836
rwrist 11.7168
rhand -6.16853 35.2715
rfingers 7.12502
rthumb 19.6703 6.24666
lclavicle 3.13086e-014 -1.88845e-015
lhumerus 8.22301 -70.5047 82.6978
lradius 79.3087
lwrist -11.6263
lhand -25.8544 39.0456
lfingers 7.12502
lthumb 0.686364 429.024
rfemur -28.1333 0.246056 19.0558
rtibia 16.4437
rfoot -4.06619 -8.50757
rtoes -8.69057
lfemur -24.8116 -17.7626 -3.1997
ltibia 18.0233
lfoot -12.0885 22.0647
ltoes -32.077
723
root 4.06655 17.7497 -9.53769 18.7134 -23.4097 -2.19453
lowerback 11.8247 0.865214 6.64901
upperback 6.35525 1.7102 -1.26887
thorax 0.302606 1.01192 -5.26637
lowerneck -20.6079 2.73715 -1.0817
upperneck 38.575 8.35684 -9.24804
head 18.5463 1.75354 -2.39936
rclavicle -7.41964e-014 5.87409e-014
rhumerus 30.539 42.1222 -19.5343
rradius 79.69
rwrist 11.138
rhand -6.34047 35.2361
rfingers 7.12502
rthumb 19.505 6.19444
lclavicle -7.41964e-014 5.87409e-014
lhumerus 8.19225 -70.485 82.6737
lradius 79.4158
lwrist -11.5831
lhand -26.0535 39.1312
lfingers 7.12502
lthumb 0.494061 429.11
rfemur -28.1365 0.208746 19.1213
rtibia 16.4797
rfoot -4.08519 -8.53603
rtoes -9.09158
lfemur -24.927 -18.1184 -2.98714
ltibia 18.0442
lfoot -12.1273 22.2165
ltoes -31.9408
724
root 4.05758 17.747 -9.53949 18.7407 -23.3072 -2.27386
lowerback 11.892 0.850262 6.63988
upperback 6.33282 1.69577 -1.21033
thorax 0.237771 1.00046 -5.20027
lowerneck -20.577 2.73514 -1.17361
upperneck 38.5908 8.38605 -9.23357
head 18.5446 1.75358 -2.37061
rclavicle -3.91109e-014 -5.06901e-015
rhumerus 30.8124 42.2958 -19.0911
rradius 79.6202
rwrist 10.6001
rhand -6.52988 35.1233
rfingers 7.12502
rthumb 19.3229 6.06334
lclavicle -3.91109e-014 -5.06901e-015
lhumerus 7.96698 -70.4813 82.8788
lradius 79.5037
lwrist -11.5764
lhand -26.1196 39.2005
lfingers 7.12502
lthumb 0.430219 429.18
rfemur -28.1179 0.171847 19.251
rtibia 16.4883
rfoot -4.10018 -8.55275
rtoes -9.46732
lfemur -24.9823 -18.3411 -2.79521
ltibia 18.0901
lfoot -12.2037 22.4388
ltoes -32.0161
725
root 4.04912 17.7428 -9.5401 18.7791 -23.2602 -2.35092
lowerback 11.938 0.893204 6.75008
upperback 6.30761 1.76671 -1.2631
thorax 0.203357 1.03767 -5.32804
lowerneck -20.5361 2.66679 -1.1242
upperneck 38.671 8.25908 -9.20924
head 18.5705 1.71356 -2.39974
rclavicle -4.54223e-014 1.81888e-014
rhumerus 30.7419 42.3653 -19.0908
rradius 79.4639
rwrist 10.2884
rhand -6.75076 35.1941
rfingers 7.12502
rthumb 19.1105 6.11303
lclavicle -4.54223e-014 1.81888e-014
lhumerus 7.97892 -70.731 82.7856
lradius 79.5846
lwrist -11.5531
lhand -26.0845 39.2216
lfingers 7.12502
lthumb 0.464131 429.201
rfemur -28.1283 0.122975 19.3871
rtibia 16.4882
rfoot -4.09349 -8.59198
rtoes -9.33682
lfemur -25.0284 -18.4417 -2.65684
ltibia 18.1522
lfoot -12.2123 22.6419
ltoes -32.2492
726
root 4.04244 17.7403 -9.54093 18.8033 -23.2302 -2.392
lowerback 11.9709 0.929135 6.79931
upperback 6.30125 1.82092 -1.29401
thorax 0.190141 1.06582 -5.39564
lowerneck -20.49 2.63369 -1.12297
upperneck 38.6861 8.20114 -9.19222
head 18.5606 1.69496 -2.40501
rclavicle 2.28602e-014 -3.27995e-014
rhumerus 30.7636 42.4078 -19.0253
rradius 79.3283
rwrist 10.2919
rhand -6.90657 35.2332
rfingers 7.12502
rthumb 18.9607 6.13737
lclavicle 2.28602e-014 -3.27995e-014
lhumerus 7.99742 -70.8987 82.7158
lradius 79.6595
lwrist -11.5601
lhand -26.0909 39.1337
lfingers 7.12502
lthumb 0.457969 429.113
rfemur -28.1279 0.130656 19.4566
rtibia 16.4708
rfoot -4.04514 -8.65519
rtoes -9.25841
lfemur -25.0652 -18.5126 -2.56573
ltibia 18.212
lfoot -12.2246 22.7354
ltoes -32.3378
